Coordinates
version=1
nRows=7
nColumns=38
inDegrees=yes

Units are S.I. units (second, meters, Newtons, ...)
Angles are in degrees.

endheader
time	pelvis_tilt	pelvis_list	pelvis_rotation	pelvis_tx	pelvis_ty	pelvis_tz	hip_flexion_r	hip_adduction_r	hip_rotation_r	knee_angle_r	ankle_angle_r	subtalar_angle_r	mtp_angle_r	hip_flexion_l	hip_adduction_l	hip_rotation_l	knee_angle_l	ankle_angle_l	subtalar_angle_l	mtp_angle_l	lumbar_extension	lumbar_bending	lumbar_rotation	arm_flex_r	arm_add_r	arm_rot_r	elbow_flex_r	pro_sup_r	wrist_flex_r	wrist_dev_r	arm_flex_l	arm_add_l	arm_rot_l	elbow_flex_l	pro_sup_l	wrist_flex_l	wrist_dev_l
      1.98000000	     -1.08156128	     -0.48954582	      6.16442754	      0.59264747	      0.93779275	     -0.24748935	     26.75043070	     -0.28745989	    -11.02345682	    -16.62878462	     -1.42292510	      2.67044724	      0.00000000	     -9.14029104	      3.46261620	      9.94860329	    -23.88963783	     15.18194866	     -2.33509643	      0.00000000	     -9.89237009	      0.88755234	    -15.29086240	     -8.35601044	     -5.59473021	     21.45145325	     38.50891645	     42.44104286	      0.00000000	      0.00000000	     10.66098575	     -6.48366355	     29.01352795	     53.15614981	     42.44104286	      0.00000000	      0.00000000
      1.99000000	     -1.35829268	     -1.13317667	      6.00704623	      0.60525039	      0.93754836	     -0.24678787	     26.81314485	      0.46445342	    -10.86787080	    -17.39400166	     -2.32991051	      2.90025629	      0.00000000	     -8.91461954	      2.82130608	      9.81359526	    -25.02838119	     14.05112518	     -2.39732252	      0.00000000	     -9.37499667	      1.71528845	    -15.04554030	     -8.22706730	     -5.73622908	     21.40703324	     38.42597028	     42.45639278	      0.00000000	      0.00000000	     10.26336544	     -6.17601473	     29.13606091	     52.96472693	     42.45639278	      0.00000000	      0.00000000
      2.00000000	     -1.58527097	     -1.88788900	      5.80410197	      0.61809812	      0.93766853	     -0.24615569	     26.86854366	      1.33396744	    -10.37822883	    -18.49433143	     -2.78401526	      3.06542354	      0.00000000	     -8.58035069	      2.09831024	      9.60960297	    -26.45024455	     12.70334892	     -2.42489915	      0.00000000	     -8.88447473	      2.69279649	    -14.73698795	     -8.08798020	     -5.93321751	     21.36069433	     38.35880299	     42.47045909	      0.00000000	      0.00000000	      9.85592747	     -5.80934007	     29.25425201	     52.71132820	     42.47045909	      0.00000000	      0.00000000
      2.01000000	     -1.81877882	     -2.75144212	      5.58598549	      0.63096677	      0.93793480	     -0.24556089	     26.85186416	      2.60494377	     -8.72368551	    -19.13933875	     -2.93562939	      0.97275215	      0.00000000	     -7.92301650	      1.17701540	      8.87262707	    -28.36938966	     11.32706300	     -1.59607384	      0.00000000	     -8.37383124	      3.80679529	    -14.37867470	     -7.93608344	     -6.17447542	     21.37612030	     38.28736429	     42.55202069	      0.00000000	      0.00000000	      9.69837618	     -5.15937728	     29.31450642	     51.35875809	     42.55202069	      0.00000000	      0.00000000
      2.02000000	     -1.82482472	     -3.37922693	      5.33877616	      0.64394664	      0.93866682	     -0.24519241	     26.73350792	      3.36523727	     -8.57934610	    -20.20256008	     -2.32260211	      0.18308868	      0.00000000	     -7.48320529	      0.59353587	      8.38277043	    -30.28888325	      9.44769097	     -1.52152063	      0.00000000	     -8.17559052	      4.71034622	    -14.07717715	     -7.72278593	     -6.41430043	     21.33783142	     38.34797527	     42.56828831	      0.00000000	      0.00000000	      9.25606942	     -4.79189368	     29.46376380	     51.11635632	     42.56828831	      0.00000000	      0.00000000
      2.03000000	     -1.80456639	     -3.93868120	      5.09148539	      0.65685438	      0.93964565	     -0.24474464	     26.38384497	      4.08037833	     -8.39646704	    -21.03493224	     -1.97353611	     -0.46972082	      0.00000000	     -6.92438413	      0.06681298	      7.88949924	    -32.36904824	      6.78483328	     -1.45752479	      0.00000000	     -8.03709850	      5.52302721	    -13.71987354	     -7.50896186	     -6.60860658	     21.31153798	     38.45674604	     42.58071380	      0.00000000	      0.00000000	      8.84420680	     -4.48666822	     29.57008597	     50.86960602	     42.58071380	      0.00000000	      0.00000000
      2.04000000	     -1.93544511	     -4.60804803	      4.74862267	      0.66946570	      0.94069074	     -0.24391630	     25.88051902	      5.31753966	     -6.82628294	    -21.13529768	     -2.07862115	     -2.38145006	      0.00000000	     -5.79784691	     -0.72531530	      6.81441324	    -34.95794320	      3.98168981	     -0.56945739	      0.00000000	     -7.74531990	      6.40684788	    -13.24517850	     -7.39244572	     -6.90424862	     21.36707937	     38.97314824	     42.63678754	      0.00000000	      0.00000000	      8.56627566	     -3.99917999	     29.61649753	     49.89285225	     42.63678754	      0.00000000	      0.00000000
